<?xml version="1.0" standalone="no"?><!DOCTYPE svg PUBLIC "-//W3C//DTD SVG 1.1//EN" "http://www.w3.org/Graphics/SVG/1.1/DTD/svg11.dtd"><svg t="1583029603039" class="icon" viewBox="0 0 1024 1024" version="1.1" xmlns="http://www.w3.org/2000/svg" p-id="5690" xmlns:xlink="http://www.w3.org/1999/xlink" width="200" height="200"><defs><style type="text/css"></style></defs><path d="M667.27936 148.60288 497.22368 148.60288c-15.0528-39.84384-53.1456-68.42368-98.00704-69.24288-0.33792 0-0.63488-0.1024-0.9728-0.1024-0.19456 0-0.33792 0.03072-0.49152 0.03072-0.19456 0-0.33792-0.03072-0.49152-0.03072-0.33792 0-0.64512 0.1024-0.99328 0.1024-44.82048 0.8192-82.54464 29.48096-97.59744 69.24288l-32.09216 0c-26.90048 0-48.81408 21.92384-48.81408 48.82432l0 698.50112c0 26.9312 21.9136 48.82432 48.81408 48.82432l490.82368 0c26.9312 0 48.82432-21.89312 48.82432-48.82432L806.22592 299.5712 667.27936 148.60288zM678.79936 221.65504l60.90752 66.18112-60.90752 0L678.79936 221.65504zM397.75232 126.23872c18.62656 0.16384 35.24608 8.8576 46.16192 22.36416l-91.94496 0C362.79296 135.13728 379.16672 126.40256 397.75232 126.23872zM765.22496 895.91808c0 4.31104-3.52256 7.8336-7.8336 7.8336L266.57792 903.75168c-4.31104 0-7.81312-3.52256-7.81312-7.8336L258.7648 197.41696c0-4.31104 3.50208-7.80288 7.81312-7.80288l190.64832 0 0 194.93888c0 33.0752-26.90048 60.0064-59.96544 60.0064-33.09568 0-59.99616-26.9312-59.99616-60.0064l0-109.6704c0-0.06144-0.04096-0.08192-0.04096-0.1536 0-0.06144 0.04096-0.09216 0.04096-0.16384 0-10.5984 8.62208-19.22048 19.22048-19.22048 10.60864 0 19.22048 8.62208 19.22048 19.22048l0 91.37152c0 12.96384 10.51648 23.47008 23.49056 23.47008 12.9536 0 23.47008-10.50624 23.47008-23.47008l0-91.37152c0-36.48512-29.67552-66.18112-66.18112-66.18112s-66.17088 29.68576-66.17088 66.18112l0 109.9776C290.31424 443.52512 338.25792 491.52 397.2608 491.52c58.96192 0 106.91584-47.99488 106.91584-106.9568L504.17664 189.62432l133.61152 0 0 118.7328c0 11.30496 9.20576 20.46976 20.51072 20.46976l106.92608 0L765.22496 895.91808z" p-id="5691" fill="#342648"></path></svg>